<?xml version="1.0" encoding="utf-8"?>
<svg id="Layer_1" data-name="Layer 1" viewBox="0 0 122.88 122.88" xmlns="http://www.w3.org/2000/svg">
  <title>email-round-line-color</title>
  <path d="M 61.44 0 C 108.752 -0.014 138.337 51.195 114.692 92.175 C 91.048 133.155 31.908 133.172 8.24 92.205 C -5.679 68.113 -1.675 37.674 18 18 C 29.506 6.456 45.141 -0.023 61.44 0 Z M 32.44 79.44 L 52.17 59.67 L 32.44 43.58 Z M 54.34 61.44 L 34 81.83 L 88.7 81.83 L 69.27 61.44 L 62.86 66.9 C 62.343 67.335 61.587 67.335 61.07 66.9 L 54.34 61.42 Z M 71.34 59.63 L 90.34 79.63 L 90.34 43.41 Z M 34.24 41.44 L 61.93 64 L 88.44 41.44 Z" style="fill: rgb(209, 209, 209); paint-order: fill; fill-rule: nonzero;"/>
</svg>